<?xml version="1.0" encoding="utf-8"?>
<!-- Generator: Adobe Illustrator 16.0.0, SVG Export Plug-In . SVG Version: 6.00 Build 0)  -->
<!DOCTYPE svg PUBLIC "-//W3C//DTD SVG 1.1//EN" "http://www.w3.org/Graphics/SVG/1.1/DTD/svg11.dtd">
<svg version="1.1" id="Layer_1" xmlns="http://www.w3.org/2000/svg" xmlns:xlink="http://www.w3.org/1999/xlink" x="0px" y="0px"
	 width="100px" height="100px" viewBox="0 0 100 100" enable-background="new 0 0 100 100" xml:space="preserve">
<g>
	<path fill="#595959" stroke="#595959" stroke-width="2" stroke-miterlimit="10" d="M39.676,33h-0.14c-0.7,3-1.4,6.3-2.241,9.1
		L33.655,54h12.111l-3.711-11.9C41.146,39.229,40.376,36,39.676,33z"/>
	<path fill="#595959" stroke="#595959" stroke-width="2" stroke-miterlimit="10" d="M81,7H18C11.373,7,6,12.373,6,19v63
		c0,6.627,5.373,12,12,12h63c6.627,0,12-5.373,12-12V19C93,12.373,87.627,7,81,7z M51.507,73l-4.271-13H32.255l-4.061,13h-8.891
		l15.122-47h10.991l15.332,47H51.507z M75,73h-8V39h8V73z M70.894,34.422c-2.87,0-4.76-2.03-4.76-4.621c0-2.66,1.96-4.69,4.83-4.69
		c2.94,0,4.761,2.03,4.83,4.69C75.794,32.392,73.904,34.422,70.894,34.422z"/>
</g>
</svg>
