<?xml version="1.0" encoding="utf-8"?>
<!-- Generator: Adobe Illustrator 16.0.0, SVG Export Plug-In . SVG Version: 6.00 Build 0)  -->
<!DOCTYPE svg PUBLIC "-//W3C//DTD SVG 1.1//EN" "http://www.w3.org/Graphics/SVG/1.1/DTD/svg11.dtd">
<svg version="1.1" id="Layer_1" xmlns="http://www.w3.org/2000/svg" xmlns:xlink="http://www.w3.org/1999/xlink" x="0px" y="0px"
	 width="100px" height="100px" viewBox="0 0 100 100" enable-background="new 0 0 100 100" xml:space="preserve">
<path fill="none" stroke="#595959" stroke-miterlimit="10" d="M93.5,81.5c0,6.627-5.373,12-12,12h-63c-6.627,0-12-5.373-12-12v-63
	c0-6.627,5.373-12,12-12h63c6.627,0,12,5.373,12,12V81.5z"/>
<g>
	<path fill="#595959" d="M18.481,27.028c2.935-0.49,6.781-0.908,11.677-0.908c6.013,0,10.419,1.398,13.215,3.917
		c2.587,2.238,4.125,5.663,4.125,9.858c0,4.265-1.259,7.621-3.636,10.069c-3.217,3.424-8.46,5.175-14.405,5.175
		c-1.819,0-3.496-0.07-4.894-0.421v18.88h-6.083V27.028z M24.565,49.754c1.327,0.35,3.006,0.49,5.033,0.49
		c7.341,0,11.817-3.567,11.817-10.069c0-6.223-4.404-9.229-11.117-9.229c-2.659,0-4.686,0.211-5.733,0.49V49.754z"/>
	<path fill="#595959" d="M54.86,66.186c2.728,1.68,6.713,3.077,10.909,3.077c6.223,0,9.858-3.285,9.858-8.042
		c0-4.404-2.517-6.92-8.88-9.369C59.057,49.125,54.3,45.14,54.3,38.498c0-7.342,6.083-12.796,15.244-12.796
		c4.825,0,8.321,1.119,10.419,2.306l-1.68,4.965c-1.537-0.84-4.683-2.237-8.95-2.237c-6.431,0-8.879,3.846-8.879,7.063
		c0,4.404,2.867,6.573,9.369,9.09c7.974,3.078,12.027,6.923,12.027,13.844c0,7.273-5.383,13.567-16.503,13.567
		c-4.543,0-9.508-1.329-12.024-3.009L54.86,66.186z"/>
</g>
</svg>
